<svg width="193" height="83" viewBox="0 0 193 83" fill="none" xmlns="http://www.w3.org/2000/svg">
<path d="M20.7215 30.0718L20.6433 30.2483C20.6433 30.2483 20.6381 30.2223 20.6381 30.2068C20.6276 30.1549 20.6224 30.103 20.612 30.0511C20.6068 30.0147 20.6016 29.9836 20.6016 29.9473L20.7215 30.0718Z" fill="white"/>
<path d="M25.0522 34.6291L25.0157 34.7122C24.9896 34.6447 24.9636 34.5772 24.9375 34.5098L25.0522 34.6291Z" fill="white"/>
<path d="M17.5461 34.7727C18.0309 35.2813 18.1665 36.0287 17.8902 36.6775L17.5461 37.4767L5.04073 66.6755C4.42563 68.108 2.37702 68.1132 1.77234 66.6755C1.73585 66.5925 1.69936 66.5043 1.66808 66.4212C0.536914 63.6602 0 60.6967 0 57.7176V5.42339C0 4.46324 0.401382 3.53424 1.13638 2.92701C1.92872 2.27307 3.16936 1.90977 4.95733 3.0879L14.799 9.99576C14.799 9.99576 17.6191 12.1237 17.5461 15.8449V18.5281C17.5461 20.1266 15.5861 20.8999 14.4862 19.7425L10.8477 15.9175C10.5819 15.6425 10.2379 15.4556 9.85732 15.3933L9.58626 15.3466C9.28392 15.2947 8.98158 15.2688 8.69488 15.2688C7.51679 15.2688 6.44818 15.7151 5.67669 16.5144C4.40478 17.8482 4.42042 19.6647 4.43606 20.0124L4.45169 20.3238C4.47254 20.7442 4.64457 21.1438 4.93127 21.4501L17.5461 34.7831V34.7727Z" fill="white"/>
<path d="M47.2911 61.9334C47.0565 62.3019 46.8376 62.6808 46.6395 63.0752C46.1547 64.0354 44.5283 66.4383 39.5449 69.4745C37.6892 70.6059 35.8334 71.7373 33.9985 72.9102C32.4816 73.8756 30.4904 75.0796 28.3219 76.2059C22.4158 79.2628 15.316 79.1538 9.61328 75.7855C10.218 75.2821 10.708 74.6177 11.0364 73.8548L11.7192 72.2667C13.0537 69.1527 15.0398 66.3605 17.5471 64.0665L34.989 53.2091L37.048 55.3837L16.5462 66.402L16.2126 66.8068C14.5758 68.8257 14.7948 70.4242 15.2691 71.4103C16.0719 73.0815 17.9954 73.6732 19.5279 73.6732H20.1847L45.4666 60.1377C46.1234 59.8107 46.6708 59.271 47.0513 58.5755C47.9948 56.8317 47.6925 54.6726 46.2902 53.1987L28.1186 34.084L30.652 28.1934C33.2323 29.5428 36.5841 31.3229 39.3677 32.9214C43.5431 35.314 46.9053 38.9262 48.8549 43.317C50.9921 48.1385 51.92 54.7194 47.2911 61.9334Z" fill="white"/>
<path d="M25.0522 34.6291L25.0157 34.7122C24.9896 34.6447 24.9636 34.5772 24.9375 34.5098L25.0522 34.6291Z" fill="white"/>
<path d="M47.2911 61.9334C47.0565 62.3019 46.8376 62.6808 46.6395 63.0752C46.1547 64.0354 44.5283 66.4383 39.5449 69.4745C37.6892 70.6059 35.8334 71.7373 33.9985 72.9102C32.4816 73.8756 30.4904 75.0796 28.3219 76.2059C22.4158 79.2628 15.316 79.1538 9.61328 75.7855C10.218 75.2821 10.708 74.6177 11.0364 73.8548L11.7192 72.2667C13.0537 69.1527 15.0398 66.3605 17.5471 64.0665L34.989 53.2091L37.048 55.3837L16.5462 66.402L16.2126 66.8068C14.5758 68.8257 14.7948 70.4242 15.2691 71.4103C16.0719 73.0815 17.9954 73.6732 19.5279 73.6732H20.1847L45.4666 60.1377C46.1234 59.8107 46.6708 59.271 47.0513 58.5755C47.9948 56.8317 47.6925 54.6726 46.2902 53.1987L28.1186 34.084L30.652 28.1934C33.2323 29.5428 36.5841 31.3229 39.3677 32.9214C43.5431 35.314 46.9053 38.9262 48.8549 43.317C50.9921 48.1385 51.92 54.7194 47.2911 61.9334Z" fill="white"/>
<path d="M20.7215 30.0718L20.6433 30.2483C20.6433 30.2483 20.6381 30.2223 20.6381 30.2068C20.6276 30.1549 20.6224 30.103 20.612 30.0511C20.6068 30.0147 20.6016 29.9836 20.6016 29.9473L20.7215 30.0718Z" fill="white"/>
<path d="M25.0522 34.6291L25.0157 34.7122C24.9896 34.6447 24.9636 34.5772 24.9375 34.5098L25.0522 34.6291Z" fill="white"/>
<path d="M44.7583 57.3349C44.6436 57.5529 44.4872 57.7293 44.2787 57.8228L19.5285 71.078C19.5285 71.078 16.0985 71.078 18.241 68.4415L40.734 56.354C41.0051 56.2035 41.0624 55.8454 40.8539 55.6222L37.2415 51.8076L32.9618 47.2819L27.6917 41.7079L23.7821 37.5818L21.4103 35.0751L19.4608 33.0095L17.5477 30.9906L7.04397 19.8892C7.04397 19.8892 6.92929 17.5277 9.14993 17.9014L17.5477 26.7348L20.1541 29.4751L20.6024 29.9474C20.6024 29.9837 20.6076 30.0148 20.6128 30.0512C20.6232 30.1031 20.6284 30.155 20.6388 30.2069C20.6388 30.2224 20.6388 30.2328 20.6441 30.2484L20.7222 30.0719L22.677 32.1272L24.9394 34.5094C24.9654 34.5768 24.9915 34.6443 25.0176 34.7118L25.054 34.6287L39.4308 49.7523L39.8426 50.1883L44.3986 54.9786C45.0033 55.6118 45.1753 56.572 44.7583 57.3349Z" fill="white"/>
<path d="M20.7215 30.0718L20.6433 30.2483C20.6433 30.2483 20.6381 30.2223 20.6381 30.2068C20.6276 30.1549 20.6224 30.103 20.612 30.0511C20.6068 30.0147 20.6016 29.9836 20.6016 29.9473L20.7215 30.0718Z" fill="white"/>
<path d="M25.0522 34.6291L25.0157 34.7122C24.9896 34.6447 24.9636 34.5772 24.9375 34.5098L25.0522 34.6291Z" fill="white"/>
<path d="M25.0522 34.6291L25.0157 34.7122C24.9896 34.6447 24.9636 34.5772 24.9375 34.5098L25.0522 34.6291Z" fill="white"/>
<path d="M23.7803 37.5758C23.7021 37.7678 23.6239 37.9547 23.5405 38.1363C23.2486 38.8214 22.9566 39.5013 22.6647 40.1812C21.8203 42.1482 20.981 44.11 20.1522 46.0355C19.2608 48.1063 18.3903 50.1355 17.5458 52.1025C13.1671 62.3009 9.58592 70.6308 8.64241 72.8313C8.40263 73.3815 7.99603 73.859 7.45912 74.1288C7.4122 74.1496 7.36529 74.1755 7.31837 74.1911C6.75018 74.4195 6.09338 74.3468 5.7337 73.1583C5.68678 72.9922 5.65551 72.821 5.63987 72.6445C5.60859 72.2189 5.68157 71.7882 5.85359 71.3885L17.5458 44.0944L20.1522 38.0117L20.2929 37.6796L21.4085 35.0742L23.7803 37.5758Z" fill="white"/>
<path d="M38.8979 1.87877C38.8927 2.23169 38.8197 2.57942 38.6789 2.9012C37.8136 4.91491 34.0031 13.7898 29.3585 24.6005C29.0197 25.3842 28.6809 26.1835 28.3316 26.9879C27.6227 28.6383 26.8981 30.3251 26.1683 32.0326C25.7982 32.8941 25.4229 33.7608 25.0528 34.6276L25.0163 34.7106C24.9902 34.6431 24.9642 34.5757 24.9381 34.5082L22.6758 32.126L23.3743 30.4963L23.7861 29.5258L25.1988 26.2354L26.3403 23.5729L36.2446 0.451528C36.2446 0.451528 36.9639 0 37.6572 0C38.2932 0 38.9083 0.389249 38.8979 1.87877Z" fill="white"/>
<path d="M20.7209 30.0703L20.642 30.2485C20.642 30.2485 20.6367 30.2223 20.6367 30.2066L20.7209 30.0703Z" fill="white"/>
<path d="M25.0522 34.6291L25.0157 34.7122C24.9896 34.6447 24.9636 34.5772 24.9375 34.5098L25.0522 34.6291Z" fill="white"/>
<path d="M71.0976 35.1837C70.446 34.0471 69.5598 33.1648 68.4443 32.542C67.3287 31.9192 66.0672 31.6027 64.6702 31.6027C63.4139 31.6027 62.3141 31.8777 61.3758 32.4331C60.9327 32.6926 60.5365 33.0143 60.1873 33.3984C59.7911 33.8292 59.4575 34.343 59.176 34.9346C58.6495 36.0557 58.3889 37.4881 58.3889 39.2319C58.3889 40.9758 58.6391 42.3874 59.1343 43.5189C59.3689 44.0482 59.6556 44.5153 59.9944 44.9202C60.3593 45.3717 60.7971 45.7454 61.2924 46.036C62.2307 46.5861 63.3566 46.8612 64.6702 46.8612C66.0672 46.8612 67.3287 46.5446 68.4443 45.9114C69.5598 45.2783 70.446 44.396 71.0976 43.2542C71.7544 42.1176 72.0828 40.7785 72.0828 39.2319C72.0828 37.6853 71.7544 36.3255 71.0976 35.1837ZM67.1984 41.4221C66.8596 42.0397 66.4061 42.512 65.8431 42.8442C65.2801 43.1711 64.6389 43.3372 63.9196 43.3372C63.2002 43.3372 62.5538 43.1711 61.9857 42.8442C61.4123 42.512 60.9587 42.0397 60.6303 41.4221C60.2967 40.8097 60.1299 40.0779 60.1299 39.2319C60.1299 38.386 60.2967 37.6386 60.6303 37.0314C60.9587 36.4241 61.4123 35.9571 61.9857 35.6249C62.5538 35.2927 63.2002 35.1318 63.9196 35.1318C64.6389 35.1318 65.2801 35.2927 65.8431 35.6249C66.4061 35.9571 66.8596 36.4241 67.1984 37.0314C67.5372 37.6386 67.7093 38.3704 67.7093 39.2319C67.7093 40.0935 67.5372 40.8097 67.1984 41.4221ZM55.8711 26.2051V46.6432H59.9944V43.6123L59.911 39.206L60.1873 34.8256V26.2051H55.8711Z" fill="white"/>
<path d="M80.9618 41.8895L76.7864 31.8262H72.3347L78.7724 46.7629L78.9705 47.2197L81.9314 44.2198L80.9618 41.8895ZM85.1685 31.8262L80.9618 41.8895L79.8306 44.6039L79.497 45.071L78.7724 46.7629L78.7203 46.8927C78.4284 47.5518 78.1 48.0241 77.7403 48.3096C77.3806 48.595 76.8958 48.7351 76.286 48.7351C75.8637 48.7351 75.4363 48.6521 75.0036 48.486C74.5657 48.3251 74.1852 48.0916 73.8516 47.8009L72.2773 50.8578C72.7569 51.2782 73.372 51.6104 74.1279 51.8491C74.8837 52.0879 75.65 52.2072 76.4267 52.2072C77.3285 52.2072 78.1573 52.0671 78.9028 51.792C79.6482 51.517 80.331 51.0395 80.9514 50.3596C81.5665 49.6797 82.1138 48.7455 82.5934 47.5518L89.3178 31.8262H85.1685Z" fill="white"/>
<path d="M99.937 42.8952C99.4575 43.2637 98.8736 43.4454 98.1908 43.4454C97.6226 43.4454 97.1691 43.2793 96.8355 42.9367C96.5071 42.5994 96.3402 42.1167 96.3402 41.4939V28.5449H92.0241V41.5458C92.0241 43.3104 92.5141 44.6339 93.4889 45.5265C94.4689 46.4192 95.8346 46.8604 97.5861 46.8604C98.2481 46.8604 98.8893 46.7825 99.5096 46.6268C100.125 46.4711 100.656 46.2376 101.099 45.9262L99.937 42.8952ZM89.7305 32.1571V35.458H100.047V32.1571H89.7305Z" fill="white"/>
<path d="M116.621 35.1723C115.938 34.0201 115.01 33.143 113.842 32.5254C112.669 31.913 111.356 31.6016 109.896 31.6016C108.436 31.6016 107.029 31.9285 105.83 32.5825C104.631 33.2312 103.688 34.1343 102.994 35.2813C102.306 36.4282 101.957 37.7465 101.957 39.2308C101.957 40.7152 102.306 42.0127 103.01 43.1597C103.709 44.3066 104.699 45.2097 105.981 45.8688C107.264 46.5331 108.754 46.8601 110.449 46.8601C111.799 46.8601 112.987 46.6577 114.019 46.2425C115.051 45.8273 115.912 45.2356 116.594 44.4675L114.296 41.9867C113.8 42.4642 113.248 42.8223 112.648 43.061C112.049 43.2998 111.356 43.4192 110.563 43.4192C109.677 43.4192 108.906 43.2583 108.254 42.9365C107.597 42.6147 107.092 42.1476 106.732 41.53C106.539 41.1978 106.393 40.8345 106.304 40.4453H117.559C117.58 40.2636 117.595 40.0612 117.616 39.8536C117.632 39.6408 117.642 39.454 117.642 39.2879C117.642 37.6894 117.303 36.3193 116.621 35.1723ZM106.252 37.9385C106.32 37.4766 106.456 37.0562 106.659 36.6826C106.977 36.1065 107.415 35.6549 107.978 35.3332C108.536 35.0166 109.187 34.8557 109.927 34.8557C110.668 34.8557 111.309 35.0166 111.861 35.3332C112.414 35.6549 112.846 36.1013 113.164 36.6722C113.373 37.0459 113.509 37.4714 113.576 37.9385H106.252Z" fill="white"/>
<path d="M129.579 42.8534C129 43.1752 128.37 43.3361 127.687 43.3361C126.946 43.3361 126.284 43.17 125.695 42.8431C125.101 42.5109 124.637 42.0438 124.298 41.4366C123.954 40.8293 123.782 40.0976 123.782 39.2308C123.782 38.3641 123.954 37.6375 124.298 37.0303C124.637 36.4231 125.101 35.956 125.695 35.6238C126.284 35.2916 126.946 35.1308 127.687 35.1308C128.37 35.1308 129 35.2916 129.579 35.6238C130.163 35.956 130.648 36.4698 131.033 37.1652L134.38 35.3747C133.827 34.1654 132.967 33.2312 131.805 32.5825C130.648 31.9285 129.282 31.6016 127.713 31.6016C126.144 31.6016 124.679 31.9285 123.423 32.5825C122.172 33.2312 121.186 34.1343 120.477 35.2813C119.769 36.4282 119.414 37.7465 119.414 39.2308C119.414 40.7152 119.769 42.0127 120.477 43.17C121.186 44.3274 122.172 45.2305 123.423 45.8844C124.679 46.5383 126.107 46.8601 127.713 46.8601C129.318 46.8601 130.648 46.5383 131.805 45.8844C132.967 45.2305 133.827 44.3118 134.38 43.1181L131.033 41.2964C130.648 42.0127 130.163 42.5317 129.579 42.8534Z" fill="white"/>
<path d="M151.171 34.4571C150.639 33.4918 149.904 32.7756 148.971 32.3085C148.043 31.8362 146.985 31.6027 145.807 31.6027C144.535 31.6027 143.399 31.8725 142.403 32.4019C141.903 32.6718 141.46 32.9988 141.074 33.3776V26.2051H136.758V46.6432H141.074V39.315C141.074 38.3963 141.225 37.6438 141.533 37.0573C141.835 36.4709 142.262 36.0349 142.805 35.7495C143.347 35.464 143.962 35.3239 144.645 35.3239C145.604 35.3239 146.344 35.6093 146.871 36.175C147.397 36.7459 147.658 37.6282 147.658 38.8219V46.6432H151.974V38.1576C151.974 36.6525 151.708 35.4173 151.171 34.4571Z" fill="white"/>
<path d="M167.411 40.1028C167.082 39.5786 166.65 39.1634 166.128 38.8623C165.602 38.5561 165.018 38.3226 164.372 38.1565C163.725 37.9956 163.084 37.8711 162.448 37.788C161.812 37.705 161.223 37.6064 160.692 37.4974C160.155 37.3884 159.727 37.2379 159.404 37.0562C159.081 36.8746 158.919 36.5995 158.919 36.231C158.919 35.8262 159.143 35.494 159.586 35.2397C160.024 34.9802 160.728 34.8557 161.687 34.8557C162.37 34.8557 163.074 34.9335 163.804 35.0892C164.533 35.2449 165.258 35.5304 165.972 35.956L167.411 32.8991C166.712 32.4735 165.836 32.1569 164.784 31.9337C163.736 31.7157 162.698 31.6016 161.687 31.6016C160.248 31.6016 159.013 31.8092 157.981 32.2244C156.949 32.6344 156.156 33.2001 155.614 33.9163C155.072 34.6325 154.796 35.4577 154.796 36.3971C154.796 37.2379 154.957 37.9282 155.281 38.4627C155.604 38.9921 156.031 39.4177 156.568 39.7291C157.105 40.0405 157.694 40.274 158.341 40.4297C158.987 40.5854 159.628 40.71 160.264 40.8034C160.9 40.8968 161.484 40.9851 162.021 41.0785C162.552 41.1719 162.98 41.3016 163.303 41.4781C163.626 41.6494 163.788 41.9141 163.788 42.2618C163.788 42.6874 163.579 43.0143 163.168 43.2531C162.751 43.4918 162.047 43.6112 161.051 43.6112C160.144 43.6112 159.227 43.4814 158.299 43.2116C157.366 42.9469 156.558 42.6043 155.875 42.1787L154.441 45.2668C155.119 45.7235 156.047 46.1024 157.22 46.4086C158.393 46.7096 159.612 46.8601 160.884 46.8601C162.38 46.8601 163.647 46.6577 164.69 46.2581C165.732 45.8533 166.53 45.2979 167.082 44.5921C167.635 43.8811 167.911 43.0714 167.911 42.1528C167.911 41.3068 167.744 40.6217 167.411 40.1028Z" fill="white"/>
<path d="M184.756 35.2657C184.053 34.1291 183.088 33.2312 181.853 32.5825C180.618 31.9285 179.215 31.6016 177.646 31.6016C176.077 31.6016 174.654 31.9285 173.429 32.5825C172.199 33.2312 171.235 34.1343 170.52 35.2813C169.812 36.4282 169.457 37.7465 169.457 39.2308C169.457 40.7152 169.812 42.0127 170.52 43.1597C171.235 44.3066 172.199 45.2097 173.429 45.8688C174.654 46.5331 176.062 46.8601 177.646 46.8601C179.231 46.8601 180.618 46.5331 181.853 45.8688C183.088 45.2097 184.053 44.3066 184.756 43.1597C185.455 42.0127 185.809 40.6996 185.809 39.2308C185.809 37.7621 185.455 36.4075 184.756 35.2657ZM180.936 41.421C180.607 42.0386 180.154 42.5109 179.585 42.8431C179.012 43.17 178.366 43.3361 177.646 43.3361C176.927 43.3361 176.281 43.17 175.707 42.8431C175.139 42.5109 174.68 42.0386 174.341 41.421C173.997 40.8086 173.831 40.0768 173.831 39.2308C173.831 38.3849 173.997 37.6375 174.341 37.0303C174.68 36.4231 175.139 35.956 175.707 35.6238C176.281 35.2916 176.927 35.1308 177.646 35.1308C178.366 35.1308 179.012 35.2916 179.585 35.6238C180.154 35.956 180.607 36.4231 180.936 37.0303C181.269 37.6375 181.436 38.3693 181.436 39.2308C181.436 40.0924 181.269 40.8086 180.936 41.421Z" fill="white"/>
<path d="M188.684 26.2051V46.6432H192.995V26.2051H188.684Z" fill="white"/>
</svg>
